<mxfile host="app.diagrams.net" modified="2023-11-24T02:03:13.924Z" agent="Mozilla/5.0 (Windows NT 10.0; Win64; x64) AppleWebKit/537.36 (KHTML, like Gecko) Chrome/119.0.0.0 Safari/537.36" etag="VLRFBBdYpAgQ0W6nVpdI" version="22.1.3" type="device">
  <diagram name="ページ1" id="-ckASL4VbAk0gU1DpJue">
    <mxGraphModel dx="3200" dy="2582" grid="1" gridSize="10" guides="1" tooltips="1" connect="1" arrows="1" fold="1" page="1" pageScale="1" pageWidth="827" pageHeight="1169" math="0" shadow="0">
      <root>
        <mxCell id="0" />
        <mxCell id="1" parent="0" />
        <mxCell id="oiNHHOAFBRdyJoh8RMuO-6" value="" style="group" parent="1" vertex="1" connectable="0">
          <mxGeometry x="50" y="60" width="200" height="240" as="geometry" />
        </mxCell>
        <mxCell id="oiNHHOAFBRdyJoh8RMuO-1" value="" style="group" parent="oiNHHOAFBRdyJoh8RMuO-6" vertex="1" connectable="0">
          <mxGeometry width="200" height="240" as="geometry" />
        </mxCell>
        <mxCell id="oiNHHOAFBRdyJoh8RMuO-2" value="" style="rounded=0;whiteSpace=wrap;html=1;" parent="oiNHHOAFBRdyJoh8RMuO-1" vertex="1">
          <mxGeometry width="200" height="240" as="geometry" />
        </mxCell>
        <mxCell id="oiNHHOAFBRdyJoh8RMuO-3" value="登録・ログイン画面" style="text;html=1;strokeColor=none;fillColor=none;align=center;verticalAlign=middle;whiteSpace=wrap;rounded=0;" parent="oiNHHOAFBRdyJoh8RMuO-1" vertex="1">
          <mxGeometry width="120" height="30" as="geometry" />
        </mxCell>
        <mxCell id="oiNHHOAFBRdyJoh8RMuO-4" value="登録" style="rounded=0;whiteSpace=wrap;html=1;" parent="oiNHHOAFBRdyJoh8RMuO-6" vertex="1">
          <mxGeometry x="30" y="90" width="140" height="30" as="geometry" />
        </mxCell>
        <mxCell id="oiNHHOAFBRdyJoh8RMuO-5" value="ログイン" style="rounded=0;whiteSpace=wrap;html=1;" parent="oiNHHOAFBRdyJoh8RMuO-6" vertex="1">
          <mxGeometry x="30" y="140" width="140" height="30" as="geometry" />
        </mxCell>
        <mxCell id="oiNHHOAFBRdyJoh8RMuO-7" value="" style="rounded=0;whiteSpace=wrap;html=1;" parent="1" vertex="1">
          <mxGeometry x="310" y="60" width="200" height="240" as="geometry" />
        </mxCell>
        <mxCell id="oiNHHOAFBRdyJoh8RMuO-8" value="登録画面" style="text;html=1;strokeColor=none;fillColor=none;align=center;verticalAlign=middle;whiteSpace=wrap;rounded=0;" parent="1" vertex="1">
          <mxGeometry x="310" y="60" width="60" height="30" as="geometry" />
        </mxCell>
        <mxCell id="oiNHHOAFBRdyJoh8RMuO-9" value="氏名" style="rounded=0;whiteSpace=wrap;html=1;" parent="1" vertex="1">
          <mxGeometry x="340" y="110" width="140" height="30" as="geometry" />
        </mxCell>
        <mxCell id="oiNHHOAFBRdyJoh8RMuO-10" value="パスワード" style="rounded=0;whiteSpace=wrap;html=1;" parent="1" vertex="1">
          <mxGeometry x="340" y="210" width="140" height="30" as="geometry" />
        </mxCell>
        <mxCell id="oiNHHOAFBRdyJoh8RMuO-11" value="メールアドレス" style="rounded=0;whiteSpace=wrap;html=1;" parent="1" vertex="1">
          <mxGeometry x="340" y="160" width="140" height="30" as="geometry" />
        </mxCell>
        <mxCell id="oiNHHOAFBRdyJoh8RMuO-12" value="取消" style="rounded=0;whiteSpace=wrap;html=1;" parent="1" vertex="1">
          <mxGeometry x="340" y="260" width="50" height="30" as="geometry" />
        </mxCell>
        <mxCell id="oiNHHOAFBRdyJoh8RMuO-13" value="内容確認" style="rounded=0;whiteSpace=wrap;html=1;" parent="1" vertex="1">
          <mxGeometry x="410" y="260" width="70" height="30" as="geometry" />
        </mxCell>
        <mxCell id="oiNHHOAFBRdyJoh8RMuO-14" style="edgeStyle=orthogonalEdgeStyle;rounded=0;orthogonalLoop=1;jettySize=auto;html=1;exitX=1;exitY=0.5;exitDx=0;exitDy=0;entryX=0;entryY=0.438;entryDx=0;entryDy=0;entryPerimeter=0;" parent="1" source="oiNHHOAFBRdyJoh8RMuO-4" target="oiNHHOAFBRdyJoh8RMuO-7" edge="1">
          <mxGeometry relative="1" as="geometry" />
        </mxCell>
        <mxCell id="oiNHHOAFBRdyJoh8RMuO-15" value="" style="rounded=0;whiteSpace=wrap;html=1;" parent="1" vertex="1">
          <mxGeometry x="550" y="60" width="200" height="240" as="geometry" />
        </mxCell>
        <mxCell id="oiNHHOAFBRdyJoh8RMuO-16" value="登録確認画面" style="text;html=1;strokeColor=none;fillColor=none;align=center;verticalAlign=middle;whiteSpace=wrap;rounded=0;" parent="1" vertex="1">
          <mxGeometry x="550" y="60" width="80" height="30" as="geometry" />
        </mxCell>
        <mxCell id="oiNHHOAFBRdyJoh8RMuO-17" value="氏名" style="rounded=0;whiteSpace=wrap;html=1;" parent="1" vertex="1">
          <mxGeometry x="580" y="110" width="140" height="30" as="geometry" />
        </mxCell>
        <mxCell id="oiNHHOAFBRdyJoh8RMuO-18" value="パスワード" style="rounded=0;whiteSpace=wrap;html=1;" parent="1" vertex="1">
          <mxGeometry x="580" y="210" width="140" height="30" as="geometry" />
        </mxCell>
        <mxCell id="oiNHHOAFBRdyJoh8RMuO-19" value="メールアドレス" style="rounded=0;whiteSpace=wrap;html=1;" parent="1" vertex="1">
          <mxGeometry x="580" y="160" width="140" height="30" as="geometry" />
        </mxCell>
        <mxCell id="oiNHHOAFBRdyJoh8RMuO-20" value="修正" style="rounded=0;whiteSpace=wrap;html=1;" parent="1" vertex="1">
          <mxGeometry x="580" y="260" width="50" height="30" as="geometry" />
        </mxCell>
        <mxCell id="oiNHHOAFBRdyJoh8RMuO-21" value="確定" style="rounded=0;whiteSpace=wrap;html=1;" parent="1" vertex="1">
          <mxGeometry x="650" y="260" width="70" height="30" as="geometry" />
        </mxCell>
        <mxCell id="oiNHHOAFBRdyJoh8RMuO-22" style="edgeStyle=orthogonalEdgeStyle;rounded=0;orthogonalLoop=1;jettySize=auto;html=1;exitX=1;exitY=0.5;exitDx=0;exitDy=0;entryX=0;entryY=0.896;entryDx=0;entryDy=0;entryPerimeter=0;" parent="1" source="oiNHHOAFBRdyJoh8RMuO-13" target="oiNHHOAFBRdyJoh8RMuO-15" edge="1">
          <mxGeometry relative="1" as="geometry" />
        </mxCell>
        <mxCell id="oiNHHOAFBRdyJoh8RMuO-23" value="" style="rounded=0;whiteSpace=wrap;html=1;" parent="1" vertex="1">
          <mxGeometry x="550" y="350" width="200" height="280" as="geometry" />
        </mxCell>
        <mxCell id="oiNHHOAFBRdyJoh8RMuO-24" value="メイン画面" style="text;html=1;strokeColor=none;fillColor=none;align=center;verticalAlign=middle;whiteSpace=wrap;rounded=0;" parent="1" vertex="1">
          <mxGeometry x="550" y="350" width="70" height="30" as="geometry" />
        </mxCell>
        <mxCell id="oiNHHOAFBRdyJoh8RMuO-25" value="日記の投稿" style="rounded=0;whiteSpace=wrap;html=1;" parent="1" vertex="1">
          <mxGeometry x="580" y="390" width="140" height="30" as="geometry" />
        </mxCell>
        <mxCell id="oiNHHOAFBRdyJoh8RMuO-26" value="タイムラインの表示" style="rounded=0;whiteSpace=wrap;html=1;" parent="1" vertex="1">
          <mxGeometry x="580" y="430" width="140" height="30" as="geometry" />
        </mxCell>
        <mxCell id="oiNHHOAFBRdyJoh8RMuO-27" value="ユーザの検索" style="rounded=0;whiteSpace=wrap;html=1;" parent="1" vertex="1">
          <mxGeometry x="580" y="470" width="140" height="30" as="geometry" />
        </mxCell>
        <mxCell id="ZWRU-ZewByBli7BYbqWN-2" style="edgeStyle=none;curved=1;rounded=0;orthogonalLoop=1;jettySize=auto;html=1;exitX=1;exitY=0.5;exitDx=0;exitDy=0;fontSize=12;startSize=8;endSize=8;" parent="1" source="oiNHHOAFBRdyJoh8RMuO-28" target="8bXkOhzzq4gTNwb8r-46-20" edge="1">
          <mxGeometry relative="1" as="geometry" />
        </mxCell>
        <mxCell id="oiNHHOAFBRdyJoh8RMuO-28" value="友達申請の確認" style="rounded=0;whiteSpace=wrap;html=1;" parent="1" vertex="1">
          <mxGeometry x="580" y="510" width="140" height="30" as="geometry" />
        </mxCell>
        <mxCell id="oiNHHOAFBRdyJoh8RMuO-29" value="アカウント情報の変更" style="rounded=0;whiteSpace=wrap;html=1;" parent="1" vertex="1">
          <mxGeometry x="580" y="550" width="140" height="30" as="geometry" />
        </mxCell>
        <mxCell id="oiNHHOAFBRdyJoh8RMuO-30" value="ログアウト" style="rounded=0;whiteSpace=wrap;html=1;" parent="1" vertex="1">
          <mxGeometry x="580" y="590" width="140" height="30" as="geometry" />
        </mxCell>
        <mxCell id="oiNHHOAFBRdyJoh8RMuO-31" value="" style="shape=callout;whiteSpace=wrap;html=1;perimeter=calloutPerimeter;rotation=-180;position2=0.54;" parent="1" vertex="1">
          <mxGeometry x="545" y="620" width="120" height="90" as="geometry" />
        </mxCell>
        <mxCell id="oiNHHOAFBRdyJoh8RMuO-32" value="ログアウト確認通知" style="text;html=1;strokeColor=none;fillColor=none;align=center;verticalAlign=middle;whiteSpace=wrap;rounded=0;" parent="1" vertex="1">
          <mxGeometry x="545" y="655" width="120" height="20" as="geometry" />
        </mxCell>
        <mxCell id="oiNHHOAFBRdyJoh8RMuO-33" value="取消" style="rounded=0;whiteSpace=wrap;html=1;" parent="1" vertex="1">
          <mxGeometry x="615" y="678.75" width="37.5" height="23.75" as="geometry" />
        </mxCell>
        <mxCell id="oiNHHOAFBRdyJoh8RMuO-34" value="確定" style="rounded=0;whiteSpace=wrap;html=1;" parent="1" vertex="1">
          <mxGeometry x="562.5" y="678.75" width="35" height="23.75" as="geometry" />
        </mxCell>
        <mxCell id="oiNHHOAFBRdyJoh8RMuO-35" value="通知" style="rounded=0;whiteSpace=wrap;html=1;" parent="1" vertex="1">
          <mxGeometry x="700" y="350" width="50" height="30" as="geometry" />
        </mxCell>
        <mxCell id="oiNHHOAFBRdyJoh8RMuO-36" style="edgeStyle=orthogonalEdgeStyle;rounded=0;orthogonalLoop=1;jettySize=auto;html=1;exitX=0.5;exitY=1;exitDx=0;exitDy=0;entryX=0.675;entryY=0;entryDx=0;entryDy=0;entryPerimeter=0;" parent="1" source="oiNHHOAFBRdyJoh8RMuO-21" target="oiNHHOAFBRdyJoh8RMuO-23" edge="1">
          <mxGeometry relative="1" as="geometry" />
        </mxCell>
        <mxCell id="oiNHHOAFBRdyJoh8RMuO-37" value="" style="rounded=0;whiteSpace=wrap;html=1;" parent="1" vertex="1">
          <mxGeometry x="50" y="370" width="200" height="240" as="geometry" />
        </mxCell>
        <mxCell id="oiNHHOAFBRdyJoh8RMuO-38" value="ログイン画面" style="text;html=1;strokeColor=none;fillColor=none;align=center;verticalAlign=middle;whiteSpace=wrap;rounded=0;" parent="1" vertex="1">
          <mxGeometry x="50" y="370" width="80" height="30" as="geometry" />
        </mxCell>
        <mxCell id="oiNHHOAFBRdyJoh8RMuO-39" value="メールアドレス" style="rounded=0;whiteSpace=wrap;html=1;" parent="1" vertex="1">
          <mxGeometry x="80" y="450" width="140" height="30" as="geometry" />
        </mxCell>
        <mxCell id="oiNHHOAFBRdyJoh8RMuO-40" value="パスワード" style="rounded=0;whiteSpace=wrap;html=1;" parent="1" vertex="1">
          <mxGeometry x="80" y="500" width="140" height="30" as="geometry" />
        </mxCell>
        <mxCell id="oiNHHOAFBRdyJoh8RMuO-41" value="取消" style="rounded=0;whiteSpace=wrap;html=1;" parent="1" vertex="1">
          <mxGeometry x="80" y="550" width="50" height="30" as="geometry" />
        </mxCell>
        <mxCell id="oiNHHOAFBRdyJoh8RMuO-42" value="内容確認" style="rounded=0;whiteSpace=wrap;html=1;" parent="1" vertex="1">
          <mxGeometry x="150" y="550" width="70" height="30" as="geometry" />
        </mxCell>
        <mxCell id="oiNHHOAFBRdyJoh8RMuO-43" style="edgeStyle=orthogonalEdgeStyle;rounded=0;orthogonalLoop=1;jettySize=auto;html=1;exitX=0.5;exitY=1;exitDx=0;exitDy=0;entryX=0.5;entryY=0;entryDx=0;entryDy=0;" parent="1" source="oiNHHOAFBRdyJoh8RMuO-5" target="oiNHHOAFBRdyJoh8RMuO-37" edge="1">
          <mxGeometry relative="1" as="geometry" />
        </mxCell>
        <mxCell id="oiNHHOAFBRdyJoh8RMuO-44" value="" style="rounded=0;whiteSpace=wrap;html=1;" parent="1" vertex="1">
          <mxGeometry x="310" y="370" width="200" height="240" as="geometry" />
        </mxCell>
        <mxCell id="oiNHHOAFBRdyJoh8RMuO-45" value="ログイン確認画面" style="text;html=1;strokeColor=none;fillColor=none;align=center;verticalAlign=middle;whiteSpace=wrap;rounded=0;" parent="1" vertex="1">
          <mxGeometry x="310" y="370" width="100" height="30" as="geometry" />
        </mxCell>
        <mxCell id="oiNHHOAFBRdyJoh8RMuO-46" value="メールアドレス" style="rounded=0;whiteSpace=wrap;html=1;" parent="1" vertex="1">
          <mxGeometry x="340" y="450" width="140" height="30" as="geometry" />
        </mxCell>
        <mxCell id="oiNHHOAFBRdyJoh8RMuO-47" value="パスワード" style="rounded=0;whiteSpace=wrap;html=1;" parent="1" vertex="1">
          <mxGeometry x="340" y="500" width="140" height="30" as="geometry" />
        </mxCell>
        <mxCell id="oiNHHOAFBRdyJoh8RMuO-48" value="修正" style="rounded=0;whiteSpace=wrap;html=1;" parent="1" vertex="1">
          <mxGeometry x="340" y="550" width="50" height="30" as="geometry" />
        </mxCell>
        <mxCell id="oiNHHOAFBRdyJoh8RMuO-49" value="確定" style="rounded=0;whiteSpace=wrap;html=1;" parent="1" vertex="1">
          <mxGeometry x="410" y="550" width="70" height="30" as="geometry" />
        </mxCell>
        <mxCell id="oiNHHOAFBRdyJoh8RMuO-50" style="edgeStyle=orthogonalEdgeStyle;rounded=0;orthogonalLoop=1;jettySize=auto;html=1;exitX=1;exitY=0.5;exitDx=0;exitDy=0;entryX=-0.005;entryY=0.813;entryDx=0;entryDy=0;entryPerimeter=0;" parent="1" source="oiNHHOAFBRdyJoh8RMuO-42" target="oiNHHOAFBRdyJoh8RMuO-44" edge="1">
          <mxGeometry relative="1" as="geometry" />
        </mxCell>
        <mxCell id="oiNHHOAFBRdyJoh8RMuO-55" style="edgeStyle=orthogonalEdgeStyle;rounded=0;orthogonalLoop=1;jettySize=auto;html=1;exitX=1;exitY=0.5;exitDx=0;exitDy=0;" parent="1" source="oiNHHOAFBRdyJoh8RMuO-49" edge="1">
          <mxGeometry relative="1" as="geometry">
            <mxPoint x="548" y="565" as="targetPoint" />
          </mxGeometry>
        </mxCell>
        <mxCell id="oiNHHOAFBRdyJoh8RMuO-57" value="&#xa;&lt;span style=&quot;color: rgb(0, 0, 0); font-family: Helvetica; font-size: 12px; font-style: normal; font-variant-ligatures: normal; font-variant-caps: normal; font-weight: 400; letter-spacing: normal; orphans: 2; text-align: center; text-indent: 0px; text-transform: none; widows: 2; word-spacing: 0px; -webkit-text-stroke-width: 0px; background-color: rgb(251, 251, 251); text-decoration-thickness: initial; text-decoration-style: initial; text-decoration-color: initial; float: none; display: inline !important;&quot;&gt;取消&lt;/span&gt;&#xa;&#xa;" style="rounded=0;whiteSpace=wrap;html=1;" parent="1" vertex="1">
          <mxGeometry x="899.25" y="245" width="200" height="240" as="geometry" />
        </mxCell>
        <mxCell id="oiNHHOAFBRdyJoh8RMuO-58" value="投稿画面" style="text;html=1;strokeColor=none;fillColor=none;align=center;verticalAlign=middle;whiteSpace=wrap;rounded=0;" parent="1" vertex="1">
          <mxGeometry x="899.25" y="245" width="60" height="30" as="geometry" />
        </mxCell>
        <mxCell id="oiNHHOAFBRdyJoh8RMuO-59" value="入力フォーム" style="rounded=0;whiteSpace=wrap;html=1;" parent="1" vertex="1">
          <mxGeometry x="919.25" y="295" width="160" height="80" as="geometry" />
        </mxCell>
        <mxCell id="oiNHHOAFBRdyJoh8RMuO-60" value="友達" style="rounded=0;whiteSpace=wrap;html=1;" parent="1" vertex="1">
          <mxGeometry x="919.25" y="395" width="40" height="30" as="geometry" />
        </mxCell>
        <mxCell id="oiNHHOAFBRdyJoh8RMuO-61" value="全員" style="rounded=0;whiteSpace=wrap;html=1;" parent="1" vertex="1">
          <mxGeometry x="970.25" y="395" width="39" height="30" as="geometry" />
        </mxCell>
        <mxCell id="oiNHHOAFBRdyJoh8RMuO-62" value="非公開" style="rounded=0;whiteSpace=wrap;html=1;" parent="1" vertex="1">
          <mxGeometry x="1019.25" y="395" width="60" height="30" as="geometry" />
        </mxCell>
        <mxCell id="oiNHHOAFBRdyJoh8RMuO-63" value="取消" style="rounded=0;whiteSpace=wrap;html=1;" parent="1" vertex="1">
          <mxGeometry x="919.25" y="445" width="70" height="30" as="geometry" />
        </mxCell>
        <mxCell id="oiNHHOAFBRdyJoh8RMuO-64" value="確定" style="rounded=0;whiteSpace=wrap;html=1;" parent="1" vertex="1">
          <mxGeometry x="1009.25" y="445" width="70" height="30" as="geometry" />
        </mxCell>
        <mxCell id="oiNHHOAFBRdyJoh8RMuO-65" value="" style="rounded=0;whiteSpace=wrap;html=1;" parent="1" vertex="1">
          <mxGeometry x="778" y="-11.870000000000005" width="200" height="240" as="geometry" />
        </mxCell>
        <mxCell id="oiNHHOAFBRdyJoh8RMuO-66" value="通知一覧画面" style="text;html=1;strokeColor=none;fillColor=none;align=center;verticalAlign=middle;whiteSpace=wrap;rounded=0;" parent="1" vertex="1">
          <mxGeometry x="778" y="-11.870000000000005" width="80" height="30" as="geometry" />
        </mxCell>
        <mxCell id="oiNHHOAFBRdyJoh8RMuO-67" value="通知1" style="rounded=0;whiteSpace=wrap;html=1;" parent="1" vertex="1">
          <mxGeometry x="808" y="28.129999999999995" width="140" height="30" as="geometry" />
        </mxCell>
        <mxCell id="oiNHHOAFBRdyJoh8RMuO-68" value="通知2" style="rounded=0;whiteSpace=wrap;html=1;" parent="1" vertex="1">
          <mxGeometry x="808" y="78.13" width="140" height="30" as="geometry" />
        </mxCell>
        <mxCell id="oiNHHOAFBRdyJoh8RMuO-69" value="通知3" style="rounded=0;whiteSpace=wrap;html=1;" parent="1" vertex="1">
          <mxGeometry x="808" y="128.13" width="140" height="30" as="geometry" />
        </mxCell>
        <mxCell id="oiNHHOAFBRdyJoh8RMuO-70" value="メイン画面に戻る" style="rounded=0;whiteSpace=wrap;html=1;" parent="1" vertex="1">
          <mxGeometry x="808" y="178.13" width="140" height="30" as="geometry" />
        </mxCell>
        <mxCell id="oiNHHOAFBRdyJoh8RMuO-71" value="" style="shape=callout;whiteSpace=wrap;html=1;perimeter=calloutPerimeter;rotation=90;" parent="1" vertex="1">
          <mxGeometry x="1024.25" y="-78.12" width="75" height="252.5" as="geometry" />
        </mxCell>
        <mxCell id="oiNHHOAFBRdyJoh8RMuO-72" value="友達申請の承認・拒否&lt;br&gt;→ プロフィール画面&lt;br&gt;自分の投稿へのリアクション・コメント&lt;br&gt;&lt;div style=&quot;&quot;&gt;&lt;span style=&quot;background-color: initial;&quot;&gt;→ 日記の詳細画面&lt;/span&gt;&lt;/div&gt;" style="text;html=1;strokeColor=none;fillColor=none;align=left;verticalAlign=middle;whiteSpace=wrap;rounded=0;" parent="1" vertex="1">
          <mxGeometry x="968" y="8.129999999999995" width="220" height="80" as="geometry" />
        </mxCell>
        <mxCell id="oiNHHOAFBRdyJoh8RMuO-73" style="edgeStyle=orthogonalEdgeStyle;rounded=0;orthogonalLoop=1;jettySize=auto;html=1;exitX=1;exitY=0.5;exitDx=0;exitDy=0;entryX=0.1;entryY=1.013;entryDx=0;entryDy=0;entryPerimeter=0;" parent="1" source="oiNHHOAFBRdyJoh8RMuO-35" target="oiNHHOAFBRdyJoh8RMuO-65" edge="1">
          <mxGeometry relative="1" as="geometry" />
        </mxCell>
        <mxCell id="oiNHHOAFBRdyJoh8RMuO-77" style="edgeStyle=orthogonalEdgeStyle;rounded=0;orthogonalLoop=1;jettySize=auto;html=1;exitX=1;exitY=0.5;exitDx=0;exitDy=0;entryX=-0.01;entryY=0.108;entryDx=0;entryDy=0;entryPerimeter=0;fillColor=#f5f5f5;strokeColor=#666666;" parent="1" source="oiNHHOAFBRdyJoh8RMuO-25" target="oiNHHOAFBRdyJoh8RMuO-57" edge="1">
          <mxGeometry relative="1" as="geometry" />
        </mxCell>
        <mxCell id="oiNHHOAFBRdyJoh8RMuO-78" value="" style="rounded=0;whiteSpace=wrap;html=1;" parent="1" vertex="1">
          <mxGeometry x="1130" y="358.87" width="200" height="240" as="geometry" />
        </mxCell>
        <mxCell id="oiNHHOAFBRdyJoh8RMuO-79" value="タイムライン画面" style="text;html=1;strokeColor=none;fillColor=none;align=center;verticalAlign=middle;whiteSpace=wrap;rounded=0;" parent="1" vertex="1">
          <mxGeometry x="1130" y="358.87" width="100" height="30" as="geometry" />
        </mxCell>
        <mxCell id="oiNHHOAFBRdyJoh8RMuO-100" style="edgeStyle=orthogonalEdgeStyle;rounded=0;orthogonalLoop=1;jettySize=auto;html=1;exitX=1;exitY=0.5;exitDx=0;exitDy=0;entryX=0.5;entryY=0;entryDx=0;entryDy=0;" parent="1" source="oiNHHOAFBRdyJoh8RMuO-80" target="oiNHHOAFBRdyJoh8RMuO-93" edge="1">
          <mxGeometry relative="1" as="geometry" />
        </mxCell>
        <mxCell id="oiNHHOAFBRdyJoh8RMuO-80" value="日記1" style="rounded=0;whiteSpace=wrap;html=1;" parent="1" vertex="1">
          <mxGeometry x="1160" y="408.87" width="140" height="30" as="geometry" />
        </mxCell>
        <mxCell id="oiNHHOAFBRdyJoh8RMuO-81" value="日記2" style="rounded=0;whiteSpace=wrap;html=1;" parent="1" vertex="1">
          <mxGeometry x="1160" y="458.87" width="140" height="30" as="geometry" />
        </mxCell>
        <mxCell id="oiNHHOAFBRdyJoh8RMuO-82" value="日記3" style="rounded=0;whiteSpace=wrap;html=1;" parent="1" vertex="1">
          <mxGeometry x="1160" y="508.87" width="140" height="30" as="geometry" />
        </mxCell>
        <mxCell id="oiNHHOAFBRdyJoh8RMuO-83" value="メイン画面に戻る" style="rounded=0;whiteSpace=wrap;html=1;" parent="1" vertex="1">
          <mxGeometry x="1160" y="558.8700000000001" width="140" height="30" as="geometry" />
        </mxCell>
        <mxCell id="oiNHHOAFBRdyJoh8RMuO-84" value="閲覧範囲選択" style="rounded=0;whiteSpace=wrap;html=1;" parent="1" vertex="1">
          <mxGeometry x="1240" y="358.87" width="90" height="30" as="geometry" />
        </mxCell>
        <mxCell id="oiNHHOAFBRdyJoh8RMuO-85" value="" style="shape=callout;whiteSpace=wrap;html=1;perimeter=calloutPerimeter;rotation=90;" parent="1" vertex="1">
          <mxGeometry x="1408.88" y="275" width="60" height="218.75" as="geometry" />
        </mxCell>
        <mxCell id="oiNHHOAFBRdyJoh8RMuO-86" value="全体・友達間・非公開・自分がリアクションした投稿から選択" style="text;html=1;strokeColor=none;fillColor=none;align=center;verticalAlign=middle;whiteSpace=wrap;rounded=0;" parent="1" vertex="1">
          <mxGeometry x="1367" y="369.37" width="170" height="30" as="geometry" />
        </mxCell>
        <mxCell id="oiNHHOAFBRdyJoh8RMuO-90" style="rounded=0;orthogonalLoop=1;jettySize=auto;html=1;exitX=1;exitY=0.5;exitDx=0;exitDy=0;entryX=-0.005;entryY=0.417;entryDx=0;entryDy=0;entryPerimeter=0;" parent="1" source="oiNHHOAFBRdyJoh8RMuO-64" target="oiNHHOAFBRdyJoh8RMuO-78" edge="1">
          <mxGeometry relative="1" as="geometry" />
        </mxCell>
        <mxCell id="oiNHHOAFBRdyJoh8RMuO-92" value="" style="rounded=0;whiteSpace=wrap;html=1;" parent="1" vertex="1">
          <mxGeometry x="1350" y="558.87" width="200" height="280" as="geometry" />
        </mxCell>
        <mxCell id="oiNHHOAFBRdyJoh8RMuO-93" value="日記の詳細画面" style="text;html=1;strokeColor=none;fillColor=none;align=center;verticalAlign=middle;whiteSpace=wrap;rounded=0;" parent="1" vertex="1">
          <mxGeometry x="1350" y="558.87" width="100" height="30" as="geometry" />
        </mxCell>
        <mxCell id="oiNHHOAFBRdyJoh8RMuO-94" value="投稿内容" style="rounded=0;whiteSpace=wrap;html=1;" parent="1" vertex="1">
          <mxGeometry x="1380" y="598.87" width="140" height="70" as="geometry" />
        </mxCell>
        <mxCell id="oiNHHOAFBRdyJoh8RMuO-95" value="コメント一覧" style="rounded=0;whiteSpace=wrap;html=1;" parent="1" vertex="1">
          <mxGeometry x="1380" y="758.87" width="140" height="30" as="geometry" />
        </mxCell>
        <mxCell id="oiNHHOAFBRdyJoh8RMuO-96" value="リアクション" style="rounded=0;whiteSpace=wrap;html=1;" parent="1" vertex="1">
          <mxGeometry x="1440" y="678.87" width="80" height="30" as="geometry" />
        </mxCell>
        <mxCell id="oiNHHOAFBRdyJoh8RMuO-97" value="コメント" style="rounded=0;whiteSpace=wrap;html=1;" parent="1" vertex="1">
          <mxGeometry x="1380" y="678.87" width="50" height="30" as="geometry" />
        </mxCell>
        <mxCell id="oiNHHOAFBRdyJoh8RMuO-98" value="タイムラインに戻る" style="rounded=0;whiteSpace=wrap;html=1;" parent="1" vertex="1">
          <mxGeometry x="1380" y="798.87" width="140" height="30" as="geometry" />
        </mxCell>
        <mxCell id="oiNHHOAFBRdyJoh8RMuO-99" value="リアクション数" style="rounded=0;whiteSpace=wrap;html=1;" parent="1" vertex="1">
          <mxGeometry x="1380" y="718.87" width="140" height="30" as="geometry" />
        </mxCell>
        <mxCell id="oiNHHOAFBRdyJoh8RMuO-101" value="" style="rounded=0;whiteSpace=wrap;html=1;" parent="1" vertex="1">
          <mxGeometry x="1129" y="678.87" width="200" height="240" as="geometry" />
        </mxCell>
        <mxCell id="oiNHHOAFBRdyJoh8RMuO-102" value="コメントの入力画面" style="text;html=1;strokeColor=none;fillColor=none;align=center;verticalAlign=middle;whiteSpace=wrap;rounded=0;" parent="1" vertex="1">
          <mxGeometry x="1129" y="678.87" width="110" height="30" as="geometry" />
        </mxCell>
        <mxCell id="oiNHHOAFBRdyJoh8RMuO-103" value="入力フォーム" style="rounded=0;whiteSpace=wrap;html=1;" parent="1" vertex="1">
          <mxGeometry x="1149" y="723.87" width="160" height="80" as="geometry" />
        </mxCell>
        <mxCell id="oiNHHOAFBRdyJoh8RMuO-104" value="取消" style="rounded=0;whiteSpace=wrap;html=1;" parent="1" vertex="1">
          <mxGeometry x="1149" y="838.87" width="70" height="30" as="geometry" />
        </mxCell>
        <mxCell id="oiNHHOAFBRdyJoh8RMuO-105" value="確定" style="rounded=0;whiteSpace=wrap;html=1;" parent="1" vertex="1">
          <mxGeometry x="1239" y="838.87" width="70" height="30" as="geometry" />
        </mxCell>
        <mxCell id="oiNHHOAFBRdyJoh8RMuO-106" style="rounded=0;orthogonalLoop=1;jettySize=auto;html=1;exitX=0;exitY=0.5;exitDx=0;exitDy=0;entryX=1.005;entryY=0.063;entryDx=0;entryDy=0;entryPerimeter=0;" parent="1" source="oiNHHOAFBRdyJoh8RMuO-97" target="oiNHHOAFBRdyJoh8RMuO-101" edge="1">
          <mxGeometry relative="1" as="geometry" />
        </mxCell>
        <mxCell id="oiNHHOAFBRdyJoh8RMuO-107" value="" style="rounded=0;whiteSpace=wrap;html=1;" parent="1" vertex="1">
          <mxGeometry x="599" y="728.87" width="200" height="240" as="geometry" />
        </mxCell>
        <mxCell id="oiNHHOAFBRdyJoh8RMuO-108" value="検索画面" style="text;html=1;strokeColor=none;fillColor=none;align=center;verticalAlign=middle;whiteSpace=wrap;rounded=0;" parent="1" vertex="1">
          <mxGeometry x="599" y="728.87" width="60" height="30" as="geometry" />
        </mxCell>
        <mxCell id="oiNHHOAFBRdyJoh8RMuO-109" value="検索フォーム" style="rounded=0;whiteSpace=wrap;html=1;" parent="1" vertex="1">
          <mxGeometry x="619" y="773.87" width="160" height="80" as="geometry" />
        </mxCell>
        <mxCell id="oiNHHOAFBRdyJoh8RMuO-110" value="取消" style="rounded=0;whiteSpace=wrap;html=1;" parent="1" vertex="1">
          <mxGeometry x="619" y="888.87" width="70" height="30" as="geometry" />
        </mxCell>
        <mxCell id="oiNHHOAFBRdyJoh8RMuO-111" value="確定" style="rounded=0;whiteSpace=wrap;html=1;" parent="1" vertex="1">
          <mxGeometry x="709" y="888.87" width="70" height="30" as="geometry" />
        </mxCell>
        <mxCell id="8bXkOhzzq4gTNwb8r-46-1" style="edgeStyle=orthogonalEdgeStyle;rounded=0;orthogonalLoop=1;jettySize=auto;html=1;exitX=1;exitY=0.5;exitDx=0;exitDy=0;entryX=0.84;entryY=-0.018;entryDx=0;entryDy=0;fontSize=12;startSize=8;endSize=8;entryPerimeter=0;fillColor=#bac8d3;strokeColor=#23445d;" parent="1" source="oiNHHOAFBRdyJoh8RMuO-27" target="oiNHHOAFBRdyJoh8RMuO-107" edge="1">
          <mxGeometry relative="1" as="geometry" />
        </mxCell>
        <mxCell id="8bXkOhzzq4gTNwb8r-46-2" value="" style="rounded=0;whiteSpace=wrap;html=1;" parent="1" vertex="1">
          <mxGeometry x="366" y="728.87" width="200" height="240" as="geometry" />
        </mxCell>
        <mxCell id="8bXkOhzzq4gTNwb8r-46-3" value="検索結果画面" style="text;html=1;strokeColor=none;fillColor=none;align=center;verticalAlign=middle;whiteSpace=wrap;rounded=0;" parent="1" vertex="1">
          <mxGeometry x="366" y="728.87" width="80" height="30" as="geometry" />
        </mxCell>
        <mxCell id="8bXkOhzzq4gTNwb8r-46-4" value="ユーザ1" style="rounded=0;whiteSpace=wrap;html=1;" parent="1" vertex="1">
          <mxGeometry x="396" y="768.87" width="140" height="30" as="geometry" />
        </mxCell>
        <mxCell id="8bXkOhzzq4gTNwb8r-46-5" value="ユーザ2" style="rounded=0;whiteSpace=wrap;html=1;" parent="1" vertex="1">
          <mxGeometry x="396" y="818.87" width="140" height="30" as="geometry" />
        </mxCell>
        <mxCell id="8bXkOhzzq4gTNwb8r-46-6" value="ユーザ3" style="rounded=0;whiteSpace=wrap;html=1;" parent="1" vertex="1">
          <mxGeometry x="396" y="868.87" width="140" height="30" as="geometry" />
        </mxCell>
        <mxCell id="8bXkOhzzq4gTNwb8r-46-7" value="検索画面に戻る" style="rounded=0;whiteSpace=wrap;html=1;" parent="1" vertex="1">
          <mxGeometry x="396" y="918.87" width="140" height="30" as="geometry" />
        </mxCell>
        <mxCell id="8bXkOhzzq4gTNwb8r-46-8" style="edgeStyle=orthogonalEdgeStyle;rounded=0;orthogonalLoop=1;jettySize=auto;html=1;exitX=0.5;exitY=1;exitDx=0;exitDy=0;entryX=0.808;entryY=1.006;entryDx=0;entryDy=0;entryPerimeter=0;fontSize=12;startSize=8;endSize=8;" parent="1" edge="1">
          <mxGeometry relative="1" as="geometry">
            <mxPoint x="718" y="918.8699999999999" as="sourcePoint" />
            <mxPoint x="465.5999999999999" y="970.31" as="targetPoint" />
            <Array as="points">
              <mxPoint x="746" y="1010" />
              <mxPoint x="466" y="1010" />
            </Array>
          </mxGeometry>
        </mxCell>
        <mxCell id="8bXkOhzzq4gTNwb8r-46-9" value="" style="rounded=0;whiteSpace=wrap;html=1;" parent="1" vertex="1">
          <mxGeometry x="130" y="732.62" width="200" height="240" as="geometry" />
        </mxCell>
        <mxCell id="8bXkOhzzq4gTNwb8r-46-10" value="プロフィール画面" style="text;html=1;strokeColor=none;fillColor=none;align=center;verticalAlign=middle;whiteSpace=wrap;rounded=0;" parent="1" vertex="1">
          <mxGeometry x="130" y="732.62" width="100" height="30" as="geometry" />
        </mxCell>
        <mxCell id="8bXkOhzzq4gTNwb8r-46-11" value="氏名" style="rounded=0;whiteSpace=wrap;html=1;" parent="1" vertex="1">
          <mxGeometry x="160" y="772.62" width="140" height="30" as="geometry" />
        </mxCell>
        <mxCell id="8bXkOhzzq4gTNwb8r-46-12" value="友達申請" style="rounded=0;whiteSpace=wrap;html=1;" parent="1" vertex="1">
          <mxGeometry x="160" y="812.62" width="140" height="30" as="geometry" />
        </mxCell>
        <mxCell id="8bXkOhzzq4gTNwb8r-46-13" value="日記1" style="rounded=0;whiteSpace=wrap;html=1;" parent="1" vertex="1">
          <mxGeometry x="160" y="852.62" width="140" height="30" as="geometry" />
        </mxCell>
        <mxCell id="8bXkOhzzq4gTNwb8r-46-14" value="日記2" style="rounded=0;whiteSpace=wrap;html=1;" parent="1" vertex="1">
          <mxGeometry x="160" y="892.62" width="140" height="30" as="geometry" />
        </mxCell>
        <mxCell id="8bXkOhzzq4gTNwb8r-46-15" value="検索結果画面に戻る" style="rounded=0;whiteSpace=wrap;html=1;" parent="1" vertex="1">
          <mxGeometry x="160" y="932.62" width="140" height="30" as="geometry" />
        </mxCell>
        <mxCell id="8bXkOhzzq4gTNwb8r-46-16" value="" style="shape=callout;whiteSpace=wrap;html=1;perimeter=calloutPerimeter;rotation=-90;" parent="1" vertex="1">
          <mxGeometry x="17.189999999999998" y="728.87" width="60.63" height="193.75" as="geometry" />
        </mxCell>
        <mxCell id="8bXkOhzzq4gTNwb8r-46-17" value="申請を押したら送られた側のユーザーが承認するまで待機中になる" style="text;html=1;strokeColor=none;fillColor=none;align=center;verticalAlign=middle;whiteSpace=wrap;rounded=0;" parent="1" vertex="1">
          <mxGeometry x="-40" y="807.62" width="150" height="40" as="geometry" />
        </mxCell>
        <mxCell id="8bXkOhzzq4gTNwb8r-46-18" style="rounded=0;orthogonalLoop=1;jettySize=auto;html=1;exitX=0;exitY=0.5;exitDx=0;exitDy=0;entryX=0.977;entryY=0.207;entryDx=0;entryDy=0;entryPerimeter=0;fontSize=12;startSize=8;endSize=8;" parent="1" source="8bXkOhzzq4gTNwb8r-46-4" target="8bXkOhzzq4gTNwb8r-46-9" edge="1">
          <mxGeometry relative="1" as="geometry" />
        </mxCell>
        <mxCell id="8bXkOhzzq4gTNwb8r-46-19" value="" style="rounded=0;whiteSpace=wrap;html=1;" parent="1" vertex="1">
          <mxGeometry x="881" y="513.87" width="200" height="240" as="geometry" />
        </mxCell>
        <mxCell id="8bXkOhzzq4gTNwb8r-46-20" value="申請確認画面" style="text;html=1;strokeColor=none;fillColor=none;align=center;verticalAlign=middle;whiteSpace=wrap;rounded=0;" parent="1" vertex="1">
          <mxGeometry x="881" y="513.87" width="80" height="30" as="geometry" />
        </mxCell>
        <mxCell id="8bXkOhzzq4gTNwb8r-46-21" value="ユーザ1" style="rounded=0;whiteSpace=wrap;html=1;" parent="1" vertex="1">
          <mxGeometry x="911" y="554.87" width="60" height="30" as="geometry" />
        </mxCell>
        <mxCell id="8bXkOhzzq4gTNwb8r-46-22" value="ユーザ2" style="rounded=0;whiteSpace=wrap;html=1;" parent="1" vertex="1">
          <mxGeometry x="911" y="604.87" width="60" height="30" as="geometry" />
        </mxCell>
        <mxCell id="8bXkOhzzq4gTNwb8r-46-23" value="ユーザ3" style="rounded=0;whiteSpace=wrap;html=1;" parent="1" vertex="1">
          <mxGeometry x="911" y="654.87" width="60" height="30" as="geometry" />
        </mxCell>
        <mxCell id="8bXkOhzzq4gTNwb8r-46-24" value="メイン画面に戻る" style="rounded=0;whiteSpace=wrap;html=1;" parent="1" vertex="1">
          <mxGeometry x="911" y="704.87" width="140" height="30" as="geometry" />
        </mxCell>
        <mxCell id="8bXkOhzzq4gTNwb8r-46-25" value="承認" style="rounded=0;whiteSpace=wrap;html=1;" parent="1" vertex="1">
          <mxGeometry x="981" y="554.87" width="30" height="30" as="geometry" />
        </mxCell>
        <mxCell id="8bXkOhzzq4gTNwb8r-46-26" value="拒否" style="rounded=0;whiteSpace=wrap;html=1;" parent="1" vertex="1">
          <mxGeometry x="1021" y="554.87" width="30" height="30" as="geometry" />
        </mxCell>
        <mxCell id="8bXkOhzzq4gTNwb8r-46-27" value="承認" style="rounded=0;whiteSpace=wrap;html=1;" parent="1" vertex="1">
          <mxGeometry x="981" y="604.87" width="30" height="30" as="geometry" />
        </mxCell>
        <mxCell id="8bXkOhzzq4gTNwb8r-46-28" value="拒否" style="rounded=0;whiteSpace=wrap;html=1;" parent="1" vertex="1">
          <mxGeometry x="1021" y="604.87" width="30" height="30" as="geometry" />
        </mxCell>
        <mxCell id="8bXkOhzzq4gTNwb8r-46-29" value="承認" style="rounded=0;whiteSpace=wrap;html=1;" parent="1" vertex="1">
          <mxGeometry x="981" y="654.87" width="30" height="30" as="geometry" />
        </mxCell>
        <mxCell id="8bXkOhzzq4gTNwb8r-46-30" value="拒否" style="rounded=0;whiteSpace=wrap;html=1;" parent="1" vertex="1">
          <mxGeometry x="1021" y="654.87" width="30" height="30" as="geometry" />
        </mxCell>
        <mxCell id="8bXkOhzzq4gTNwb8r-46-33" value="" style="rounded=0;whiteSpace=wrap;html=1;" parent="1" vertex="1">
          <mxGeometry x="888" y="783.87" width="200" height="240" as="geometry" />
        </mxCell>
        <mxCell id="8bXkOhzzq4gTNwb8r-46-34" value="変更画面" style="text;html=1;strokeColor=none;fillColor=none;align=center;verticalAlign=middle;whiteSpace=wrap;rounded=0;" parent="1" vertex="1">
          <mxGeometry x="888" y="783.87" width="60" height="30" as="geometry" />
        </mxCell>
        <mxCell id="8bXkOhzzq4gTNwb8r-46-35" value="氏名" style="rounded=0;whiteSpace=wrap;html=1;" parent="1" vertex="1">
          <mxGeometry x="918" y="823.87" width="140" height="30" as="geometry" />
        </mxCell>
        <mxCell id="8bXkOhzzq4gTNwb8r-46-36" value="パスワード" style="rounded=0;whiteSpace=wrap;html=1;" parent="1" vertex="1">
          <mxGeometry x="918" y="923.87" width="140" height="30" as="geometry" />
        </mxCell>
        <mxCell id="8bXkOhzzq4gTNwb8r-46-37" value="メールアドレス" style="rounded=0;whiteSpace=wrap;html=1;" parent="1" vertex="1">
          <mxGeometry x="918" y="873.87" width="140" height="30" as="geometry" />
        </mxCell>
        <mxCell id="8bXkOhzzq4gTNwb8r-46-38" value="取消" style="rounded=0;whiteSpace=wrap;html=1;" parent="1" vertex="1">
          <mxGeometry x="918" y="973.87" width="50" height="30" as="geometry" />
        </mxCell>
        <mxCell id="8bXkOhzzq4gTNwb8r-46-39" value="内容確認" style="rounded=0;whiteSpace=wrap;html=1;" parent="1" vertex="1">
          <mxGeometry x="988" y="973.87" width="70" height="30" as="geometry" />
        </mxCell>
        <mxCell id="8bXkOhzzq4gTNwb8r-46-41" value="" style="rounded=0;whiteSpace=wrap;html=1;" parent="1" vertex="1">
          <mxGeometry x="889.75" y="1050" width="200" height="240" as="geometry" />
        </mxCell>
        <mxCell id="8bXkOhzzq4gTNwb8r-46-42" value="変更確認画面" style="text;html=1;strokeColor=none;fillColor=none;align=center;verticalAlign=middle;whiteSpace=wrap;rounded=0;" parent="1" vertex="1">
          <mxGeometry x="889.75" y="1050" width="80" height="30" as="geometry" />
        </mxCell>
        <mxCell id="8bXkOhzzq4gTNwb8r-46-43" value="氏名" style="rounded=0;whiteSpace=wrap;html=1;" parent="1" vertex="1">
          <mxGeometry x="919.75" y="1090" width="140" height="30" as="geometry" />
        </mxCell>
        <mxCell id="8bXkOhzzq4gTNwb8r-46-44" value="パスワード" style="rounded=0;whiteSpace=wrap;html=1;" parent="1" vertex="1">
          <mxGeometry x="919.75" y="1190" width="140" height="30" as="geometry" />
        </mxCell>
        <mxCell id="8bXkOhzzq4gTNwb8r-46-45" value="メールアドレス" style="rounded=0;whiteSpace=wrap;html=1;" parent="1" vertex="1">
          <mxGeometry x="919.75" y="1140" width="140" height="30" as="geometry" />
        </mxCell>
        <mxCell id="8bXkOhzzq4gTNwb8r-46-46" value="修正" style="rounded=0;whiteSpace=wrap;html=1;" parent="1" vertex="1">
          <mxGeometry x="919.75" y="1240" width="50" height="30" as="geometry" />
        </mxCell>
        <mxCell id="8bXkOhzzq4gTNwb8r-46-47" value="確定" style="rounded=0;whiteSpace=wrap;html=1;" parent="1" vertex="1">
          <mxGeometry x="989.75" y="1240" width="70" height="30" as="geometry" />
        </mxCell>
        <mxCell id="ZWRU-ZewByBli7BYbqWN-3" style="edgeStyle=orthogonalEdgeStyle;rounded=0;orthogonalLoop=1;jettySize=auto;html=1;exitX=1;exitY=0.5;exitDx=0;exitDy=0;entryX=-0.005;entryY=0.219;entryDx=0;entryDy=0;entryPerimeter=0;fontSize=12;startSize=8;endSize=8;" parent="1" edge="1">
          <mxGeometry relative="1" as="geometry">
            <mxPoint x="728" y="565" as="sourcePoint" />
            <mxPoint x="895" y="836.4300000000003" as="targetPoint" />
            <Array as="points">
              <mxPoint x="838" y="565" />
              <mxPoint x="838" y="836" />
            </Array>
          </mxGeometry>
        </mxCell>
        <mxCell id="ZWRU-ZewByBli7BYbqWN-5" style="edgeStyle=none;curved=1;rounded=0;orthogonalLoop=1;jettySize=auto;html=1;exitX=0.5;exitY=1;exitDx=0;exitDy=0;entryX=0.67;entryY=-0.003;entryDx=0;entryDy=0;entryPerimeter=0;fontSize=12;startSize=8;endSize=8;" parent="1" source="8bXkOhzzq4gTNwb8r-46-39" target="8bXkOhzzq4gTNwb8r-46-41" edge="1">
          <mxGeometry relative="1" as="geometry" />
        </mxCell>
        <mxCell id="ZWRU-ZewByBli7BYbqWN-6" style="edgeStyle=orthogonalEdgeStyle;rounded=0;orthogonalLoop=1;jettySize=auto;html=1;exitX=1;exitY=0.5;exitDx=0;exitDy=0;entryX=-0.013;entryY=0.596;entryDx=0;entryDy=0;entryPerimeter=0;fontSize=12;startSize=8;endSize=8;" parent="1" source="oiNHHOAFBRdyJoh8RMuO-26" target="oiNHHOAFBRdyJoh8RMuO-78" edge="1">
          <mxGeometry relative="1" as="geometry">
            <Array as="points">
              <mxPoint x="870" y="445" />
              <mxPoint x="870" y="502" />
            </Array>
          </mxGeometry>
        </mxCell>
      </root>
    </mxGraphModel>
  </diagram>
</mxfile>
